<?xml version="1.0" encoding="UTF-8" standalone="no"?>
<!-- Created with Inkscape (http://www.inkscape.org/) -->

<svg
   xmlns:dc="http://purl.org/dc/elements/1.1/"
   xmlns:cc="http://creativecommons.org/ns#"
   xmlns:rdf="http://www.w3.org/1999/02/22-rdf-syntax-ns#"
   xmlns:svg="http://www.w3.org/2000/svg"
   xmlns="http://www.w3.org/2000/svg"
   xmlns:sodipodi="http://sodipodi.sourceforge.net/DTD/sodipodi-0.dtd"
   xmlns:inkscape="http://www.inkscape.org/namespaces/inkscape"
   version="1.1"
   id="svg3751"
   xml:space="preserve"
   width="960"
   height="960"
   viewBox="0 0 960 960"
   sodipodi:docname="salt-and-pepper.svg"
   inkscape:version="0.92.3 (2405546, 2018-03-11)"><metadata
     id="metadata3757"><rdf:RDF><cc:Work
         rdf:about=""><dc:format>image/svg+xml</dc:format><dc:type
           rdf:resource="http://purl.org/dc/dcmitype/StillImage" /><dc:title></dc:title></cc:Work></rdf:RDF></metadata><defs
     id="defs3755"><clipPath
       clipPathUnits="userSpaceOnUse"
       id="clipPath3767"><path
         d="M 0,720 H 720 V 0 H 0 Z"
         id="path3765"
         inkscape:connector-curvature="0" /></clipPath></defs><sodipodi:namedview
     pagecolor="#ffffff"
     bordercolor="#666666"
     borderopacity="1"
     objecttolerance="10"
     gridtolerance="10"
     guidetolerance="10"
     inkscape:pageopacity="0"
     inkscape:pageshadow="2"
     inkscape:window-width="1366"
     inkscape:window-height="716"
     id="namedview3753"
     showgrid="false"
     inkscape:zoom="0.546875"
     inkscape:cx="480"
     inkscape:cy="480"
     inkscape:window-x="0"
     inkscape:window-y="0"
     inkscape:window-maximized="1"
     inkscape:current-layer="g3759" /><g
     id="g3759"
     inkscape:groupmode="layer"
     inkscape:label="Final Logo"
     transform="matrix(1.3333333,0,0,-1.3333333,0,960)"><g
       id="g3761"><g
         id="g3763"
         clip-path="url(#clipPath3767)"><g
           id="g3769"
           transform="translate(690.2529,360)"></g><g
           id="g3773"
           transform="translate(669.0967,360)"><path
             d="m 0,0 c 0,-170.709 -138.388,-309.097 -309.097,-309.097 -170.709,0 -309.096,138.388 -309.096,309.097 0,170.709 138.387,309.097 309.096,309.097 C -138.388,309.097 0,170.709 0,0"
             style="fill:#231f20;fill-opacity:1;fill-rule:nonzero;stroke:none"
             id="path3775"
             inkscape:connector-curvature="0" /></g><g
           id="g3777"
           transform="translate(360,639.9678)"><path
             d="m 0,0 c -154.375,0 -279.968,-125.593 -279.968,-279.968 0,-154.375 125.593,-279.969 279.968,-279.969 154.375,0 279.968,125.594 279.968,279.969 C 279.968,-125.593 154.375,0 0,0 m 0,-567.509 c -76.805,0 -149.012,29.91 -203.322,84.22 -54.309,54.309 -84.218,126.517 -84.218,203.321 0,76.804 29.909,149.013 84.218,203.322 54.309,54.31 126.517,84.219 203.322,84.219 76.805,0 149.013,-29.909 203.322,-84.219 54.309,-54.309 84.218,-126.518 84.218,-203.322 0,-76.804 -29.909,-149.012 -84.218,-203.321 C 149.013,-537.599 76.805,-567.509 0,-567.509"
             style="fill:#ed1c24;fill-opacity:1;fill-rule:nonzero;stroke:none"
             id="path3779"
             inkscape:connector-curvature="0" /></g><g
           id="g3781"
           transform="translate(360,542.7588)"><path
             d="m 0,0 c -100.774,0 -182.759,-81.985 -182.759,-182.759 0,-100.774 81.985,-182.759 182.759,-182.759 100.773,0 182.759,81.985 182.759,182.759 C 182.759,-81.985 100.773,0 0,0 m 0,-368.764 c -102.563,0 -186.004,83.443 -186.004,186.005 0,102.563 83.441,186.005 186.004,186.005 102.563,0 186.004,-83.442 186.004,-186.005 0,-102.562 -83.441,-186.005 -186.004,-186.005"
             style="fill:#ffffff;fill-opacity:1;fill-rule:nonzero;stroke:none"
             id="path3783"
             inkscape:connector-curvature="0" /></g><path
           d="m 620.666,389.425 h -78.757 v 3.245 h 78.757 z"
           style="fill:#ffffff;fill-opacity:1;fill-rule:nonzero;stroke:none"
           id="path3785"
           inkscape:connector-curvature="0" /><path
           d="m 620.666,327.33 h -78.757 v 3.245 h 78.757 z"
           style="fill:#ffffff;fill-opacity:1;fill-rule:nonzero;stroke:none"
           id="path3787"
           inkscape:connector-curvature="0" /><path
           d="M 176.701,389.425 H 97.944 v 3.245 h 78.757 z"
           style="fill:#ffffff;fill-opacity:1;fill-rule:nonzero;stroke:none"
           id="path3789"
           inkscape:connector-curvature="0" /><path
           d="M 176.701,327.33 H 97.944 v 3.245 h 78.757 z"
           style="fill:#ffffff;fill-opacity:1;fill-rule:nonzero;stroke:none"
           id="path3791"
           inkscape:connector-curvature="0" /><g
           id="g3793"
           transform="translate(141.3325,446.7661)"><path
             d="m 0,0 c -3.241,-1.736 -6.329,-2.066 -9.27,-0.974 -2.613,1.179 -4.439,3.315 -5.451,6.412 -1.147,3.53 -0.692,7.585 1.371,12.175 2.082,4.622 4.875,7.281 8.386,7.976 L 2.55,22.207 1.121,19.029 c -3.792,0.734 -6.361,0.798 -7.7,0.195 -1.73,-0.66 -2.863,-1.585 -3.401,-2.78 -0.711,-1.579 -0.795,-2.956 -0.257,-4.122 0.731,-1.672 2.057,-2.944 3.985,-3.812 2.018,-0.765 4.875,0.221 8.558,2.966 3.927,2.96 7.066,5.045 9.417,6.259 3.575,1.96 7.316,2.245 11.23,0.855 3.165,-1.419 5.304,-3.77 6.419,-7.053 1.268,-3.674 0.704,-8.171 -1.685,-13.491 -2.723,-6.047 -6.252,-9.26 -10.583,-9.625 l -10.089,4.465 1.742,3.872 c 5.874,-1.668 9.84,-2.082 11.883,-1.242 1.711,0.714 2.934,1.899 3.684,3.558 0.967,2.156 1.249,3.908 0.833,5.257 C 24.554,6.079 22.876,7.598 20.122,8.888 16.72,10.182 13.165,9.49 9.449,6.8 5.279,3.398 2.127,1.13 0,0"
             style="fill:#ffffff;fill-opacity:1;fill-rule:nonzero;stroke:none"
             id="path3795"
             inkscape:connector-curvature="0" /></g><g
           id="g3797"
           transform="translate(172.8247,488.498)"><path
             d="m 0,0 5.58,7.62 -14.529,4.827 z m 2.261,-3.462 3.184,-4.767 c 0.602,-0.755 1.23,-1.371 1.87,-1.844 1.813,-1.323 3.537,-0.859 5.189,1.393 l 2.095,-1.538 -7.418,-10.128 -2.095,1.538 c 0.801,1.089 0.372,2.975 -1.281,5.653 l -22.447,33.715 2.172,2.969 39,-11.114 c 3.075,-0.733 5.01,-0.554 5.81,0.538 L 30.435,11.419 19.391,-3.67 17.296,-2.133 c 1.768,2.418 1.755,4.289 -0.057,5.614 -0.577,0.427 -1.352,0.837 -2.32,1.227 L 9.564,6.512 Z"
             style="fill:#ffffff;fill-opacity:1;fill-rule:nonzero;stroke:none"
             id="path3799"
             inkscape:connector-curvature="0" /></g><g
           id="g3801"
           transform="translate(220.8379,521.2842)"><path
             d="m 0,0 c 3.606,3.254 3.6,6.89 -0.019,10.909 l 2.537,2.291 8.026,-8.898 -22.459,-20.243 -1.736,1.924 c 2.197,1.98 2.562,3.787 1.095,5.417 l -22.21,24.634 c -1.466,1.627 -3.318,1.467 -5.541,-0.48 l -1.742,1.928 13.747,12.395 1.742,-1.931 c -2.267,-2.155 -2.677,-4.032 -1.236,-5.631 l 22.075,-24.49 c 0.987,-1.096 1.999,-1.176 3.037,-0.243 z"
             style="fill:#ffffff;fill-opacity:1;fill-rule:nonzero;stroke:none"
             id="path3803"
             inkscape:connector-curvature="0" /></g><g
           id="g3805"
           transform="translate(239.7612,584.4507)"><path
             d="M 0,0 6.438,-10.403 3.53,-12.204 c -2.941,4.741 -5.689,6.32 -8.258,4.735 L -7.239,-9.026 11.307,-39 c 1.153,-1.867 3.004,-2.008 5.56,-0.432 l 1.364,-2.21 -15.63,-9.67 -1.365,2.21 c 2.55,1.579 3.248,3.299 2.089,5.166 l -18.539,29.974 -2.537,-1.563 c -2.588,-1.601 -2.415,-4.772 0.525,-9.519 l -2.915,-1.8 -6.431,10.403 z"
             style="fill:#ffffff;fill-opacity:1;fill-rule:nonzero;stroke:none"
             id="path3807"
             inkscape:connector-curvature="0" /></g><g
           id="g3809"
           transform="translate(315.3462,584.2842)"><path
             d="m 0,0 c -6.97,-2.649 -10.173,-5.103 -9.628,-7.364 0.461,-1.537 0.897,-2.258 1.306,-2.158 0.205,0.047 0.41,0.294 0.609,0.733 0.685,1.297 1.563,2.162 2.627,2.598 2.216,0.538 3.593,-0.196 4.125,-2.198 0.551,-2.255 -0.397,-3.725 -2.844,-4.407 -4.978,-0.993 -8.091,0.903 -9.341,5.689 -1.018,4.189 1.589,7.866 7.822,11.034 6.272,3.174 9.148,5.829 8.629,7.966 -0.326,1.355 -0.659,1.995 -0.986,1.912 -0.122,-0.029 -0.308,-0.266 -0.545,-0.718 -0.448,-1.37 -1.307,-2.21 -2.581,-2.52 -1.973,-0.478 -3.261,0.253 -3.863,2.194 -0.487,2.011 0.403,3.447 2.677,4.305 l 0.494,0.118 C 2.357,18.12 4.99,16.326 6.393,11.797 7.001,9.292 6.56,6.902 5.073,4.628 7.488,2.735 9.083,0.189 9.865,-3.014 c 2.204,-9.077 -2.364,-15.08 -13.696,-18.007 -12.364,-2.787 -19.648,0.336 -21.845,9.369 -1.55,6.364 1.512,11.847 9.18,16.45 -6.156,0.288 -9.705,2.338 -10.628,6.16 -1.197,5.797 1.263,9.48 7.361,11.05 2.134,0.519 4.049,0.593 5.746,0.224 l 2.217,0.538 2.069,-8.498 -2.71,-0.659 c -1.153,3.846 -2.594,5.563 -4.317,5.144 -1.929,-0.641 -2.537,-2.441 -1.82,-5.397 1.019,-4.19 4.689,-5.948 11.006,-5.282 l -5.291,-5.074 c -3.53,-1.031 -4.44,-5.099 -2.71,-12.2 1.864,-7.335 5.554,-10.349 11.07,-9.052 5.534,1.387 7.635,5.791 6.315,13.21 C 1.223,-2.614 0.615,-0.938 0,0"
             style="fill:#ffffff;fill-opacity:1;fill-rule:nonzero;stroke:none"
             id="path3811"
             inkscape:connector-curvature="0" /></g><g
           id="g3813"
           transform="translate(377.5674,610.4175)"><path
             d="m 0,0 -1.352,-16.425 c -0.133,-1.601 0.283,-2.441 1.256,-2.521 l 1.134,-0.093 c 5.74,-0.307 8.866,2.595 9.372,8.703 0.5,6.105 -2.101,9.481 -7.821,10.122 z m -1.812,-21.985 -0.891,-10.804 c -0.353,-4.251 1.031,-6.505 4.144,-6.765 l -0.211,-2.591 -18.513,1.531 0.218,2.591 c 2.985,-0.247 4.574,0.724 4.753,2.915 l 2.736,33.1 c 0.179,2.149 -1.231,3.389 -4.209,3.718 l 0.211,2.528 15.976,-1.32 c 12.8,-1.099 18.86,-5.797 18.174,-14.093 -0.685,-8.338 -7.437,-12.002 -20.243,-10.987 z"
             style="fill:#ffffff;fill-opacity:1;fill-rule:nonzero;stroke:none"
             id="path3815"
             inkscape:connector-curvature="0" /></g><g
           id="g3817"
           transform="translate(422.9609,581.7827)"><path
             d="m 0,0 -4.369,-14.503 c -0.448,-1.499 -0.269,-2.371 0.538,-2.614 l 8.379,-2.521 c 4.689,-1.416 7.848,0.571 9.469,5.951 l 3.279,-0.986 -3.549,-11.774 -33.196,9.996 0.75,2.489 c 2.87,-0.868 4.625,-0.246 5.26,1.858 l 9.576,31.802 c 0.615,2.067 -0.499,3.572 -3.344,4.517 l 0.73,2.428 31.32,-9.43 L 21.3,5.438 18.021,6.425 c 1.62,5.381 0.018,8.796 -4.792,10.25 L 5.701,18.939 1.114,3.703 9.129,1.294 c 1.575,-0.477 2.716,0.372 3.414,2.543 L 15.637,2.905 12.639,-7.05 9.545,-6.118 c 0.551,1.995 0.045,3.232 -1.531,3.706 z"
             style="fill:#ffffff;fill-opacity:1;fill-rule:nonzero;stroke:none"
             id="path3819"
             inkscape:connector-curvature="0" /></g><g
           id="g3821"
           transform="translate(477.9883,581.6162)"><path
             d="m 0,0 -7.949,-14.439 c -0.776,-1.406 -0.738,-2.345 0.115,-2.812 l 0.999,-0.548 c 5.118,-2.627 9.154,-1.256 12.107,4.115 2.954,5.369 1.955,9.51 -2.998,12.428 z m -10.64,-19.324 -5.227,-9.497 c -2.057,-3.738 -1.717,-6.358 1.024,-7.869 l -1.255,-2.275 -16.271,8.953 1.256,2.28 c 2.626,-1.451 4.47,-1.21 5.528,0.718 L -9.563,2.082 c 1.037,1.886 0.262,3.59 -2.32,5.115 l 1.224,2.22 L 3.383,1.682 C 14.619,-4.548 18.226,-11.313 14.216,-18.606 10.18,-25.938 2.524,-26.521 -8.75,-20.365 Z"
             style="fill:#ffffff;fill-opacity:1;fill-rule:nonzero;stroke:none"
             id="path3823"
             inkscape:connector-curvature="0" /></g><g
           id="g3825"
           transform="translate(521.249,552.395)"><path
             d="m 0,0 -10.756,-12.482 c -1.051,-1.221 -1.205,-2.143 -0.468,-2.78 l 0.865,-0.743 c 4.465,-3.623 8.693,-3.114 12.69,1.527 4.004,4.642 3.883,8.905 -0.358,12.784 z m -14.401,-16.71 -7.073,-8.213 c -2.786,-3.231 -2.998,-5.868 -0.621,-7.911 l -1.704,-1.97 -14.067,12.123 1.697,1.97 c 2.274,-1.957 4.126,-2.104 5.561,-0.438 L -8.924,4.013 c 1.403,1.634 0.999,3.46 -1.218,5.481 L -8.488,11.416 3.657,0.948 c 9.705,-8.417 11.839,-15.781 6.406,-22.088 -5.458,-6.339 -13.068,-5.33 -22.825,3.024 z"
             style="fill:#ffffff;fill-opacity:1;fill-rule:nonzero;stroke:none"
             id="path3827"
             inkscape:connector-curvature="0" /></g><g
           id="g3829"
           transform="translate(541.0879,502.6138)"><path
             d="m 0,0 -12.05,-9.189 c -1.236,-0.945 -1.595,-1.756 -1.089,-2.432 l 5.298,-6.953 c 2.979,-3.898 6.701,-4.142 11.166,-0.737 l 2.075,-2.719 -9.782,-7.457 -21.017,27.571 2.068,1.573 c 1.819,-2.383 3.601,-2.911 5.35,-1.575 L 8.424,18.219 c 1.711,1.306 1.698,3.18 -0.058,5.614 l 2.019,1.541 19.833,-26.008 -9.777,-7.457 -2.075,2.719 c 4.465,3.412 5.176,7.114 2.127,11.115 L 15.727,11.992 3.081,2.345 8.148,-4.312 c 1,-1.309 2.422,-1.29 4.26,0.062 l 1.961,-2.569 -8.264,-6.307 -1.966,2.569 c 1.62,1.291 1.934,2.591 0.935,3.901 z"
             style="fill:#ffffff;fill-opacity:1;fill-rule:nonzero;stroke:none"
             id="path3831"
             inkscape:connector-curvature="0" /></g><g
           id="g3833"
           transform="translate(585.1875,470.6543)"><path
             d="m 0,0 -15.33,-7.182 c -0.954,-0.448 -1.23,-1.091 -0.839,-1.934 3.101,-5.221 7.175,-6.65 12.223,-4.282 5.553,2.601 7.085,6.604 4.592,12.017 z m -19.276,-28.632 c -5.08,-4.199 -6.951,-8.081 -5.605,-11.653 l -1.89,-0.89 -3.625,7.751 c -2.294,4.994 -0.225,9.789 6.207,14.388 4.695,3.322 6.572,5.996 5.618,8.024 -0.378,0.804 -0.731,1.409 -1.057,1.813 l -9.987,-4.68 c -3.869,-1.809 -5.138,-4.129 -3.806,-6.96 l -2.357,-1.105 -7.854,16.761 2.351,1.102 c 1.256,-2.678 2.883,-3.552 4.875,-2.617 l 30.077,14.09 c 1.985,0.929 2.37,2.745 1.159,5.442 l 2.293,1.073 5.836,-12.453 c 5.535,-11.826 4.933,-19.551 -1.813,-23.177 -6.656,-3.123 -11.799,-1.563 -15.419,4.676 1.57,-3.651 -0.102,-7.511 -5.003,-11.585"
             style="fill:#ffffff;fill-opacity:1;fill-rule:nonzero;stroke:none"
             id="path3835"
             inkscape:connector-curvature="0" /></g><g
           id="g3837"
           transform="translate(130.2695,268.2842)"><path
             d="m 0,0 c -1.531,-0.596 -1.909,-1.979 -1.127,-4.145 l -1.378,-0.538 -4.132,10.616 1.378,0.538 c 0.858,-2.037 2.056,-2.768 3.587,-2.166 l 22.146,8.616 c 1.537,0.602 1.928,1.941 1.185,4.023 l 1.377,0.538 4.132,-10.621 -1.384,-0.532 c -0.89,2.127 -2.101,2.89 -3.632,2.294 z"
             style="fill:#ffffff;fill-opacity:1;fill-rule:nonzero;stroke:none"
             id="path3839"
             inkscape:connector-curvature="0" /></g><g
           id="g3841"
           transform="translate(159.4873,248.3105)"><path
             d="m 0,0 -15.342,-9.372 c -1.404,-0.858 -1.339,-2.601 0.198,-5.233 l -1.262,-0.776 -5.067,8.302 1.262,0.768 c 0.788,-1.229 1.896,-1.409 3.325,-0.538 L 1.518,4.395 C 4.202,6.034 5.169,7.488 4.433,8.75 l 1.262,0.775 2.152,-3.529 -9.763,-27.975 16.112,9.839 c 1.403,0.859 1.364,2.556 -0.109,5.087 l 1.262,0.769 5.073,-8.303 -1.261,-0.774 c -0.866,1.364 -2.018,1.607 -3.447,0.736 l -23.728,-14.497 -0.929,1.531 z"
             style="fill:#ffffff;fill-opacity:1;fill-rule:nonzero;stroke:none"
             id="path3843"
             inkscape:connector-curvature="0" /></g><g
           id="g3845"
           transform="translate(177.6997,190.1182)"><path
             d="m 0,0 c 2.268,-2.338 4.984,-3.325 8.142,-2.953 3.196,0.352 6.188,1.864 8.981,4.522 2.934,2.793 4.728,5.849 5.381,9.148 0.641,3.216 -0.166,6.015 -2.434,8.392 L 17.476,21.845 -1.108,4.151 C -2.101,3.209 -1.903,2.012 -0.525,0.551 Z M 21.652,20.313 C 25.047,16.527 26.649,12.748 26.45,8.969 26.232,5.17 24.292,1.524 20.634,-1.96 17.168,-5.26 13.536,-6.925 9.724,-6.964 5.874,-6.989 2.171,-5.221 -1.403,-1.646 l -8.193,8.609 1.07,1.018 C -7.002,6.425 -5.631,6.22 -4.42,7.38 l 17.213,16.387 c 1.217,1.152 1.076,2.53 -0.404,4.131 l 1.07,1.019 z"
             style="fill:#ffffff;fill-opacity:1;fill-rule:nonzero;stroke:none"
             id="path3847"
             inkscape:connector-curvature="0" /></g><g
           id="g3849"
           transform="translate(215.2007,159.5166)"><path
             d="m 0,0 c -0.974,-1.326 -0.558,-2.69 1.262,-4.113 l -0.878,-1.192 -9.167,6.759 0.878,1.192 c 1.819,-1.262 3.216,-1.23 4.189,0.095 l 14.1,19.122 c 0.974,1.326 0.589,2.665 -1.153,4.036 l 0.877,1.192 9.167,-6.758 -0.877,-1.192 c -1.89,1.313 -3.318,1.313 -4.298,-0.013 z"
             style="fill:#ffffff;fill-opacity:1;fill-rule:nonzero;stroke:none"
             id="path3851"
             inkscape:connector-curvature="0" /></g><g
           id="g3853"
           transform="translate(248.0957,148.8057)"><path
             d="m 0,0 8.295,-4.157 2.102,14.496 z M -1.928,-1.742 -5.24,-4.843 c -0.442,-0.48 -0.769,-0.935 -0.987,-1.365 -0.75,-1.492 -0.218,-2.729 1.602,-3.709 l -0.667,-1.319 -8.295,4.157 0.666,1.32 c 0.839,-0.391 2.229,0.249 4.17,1.922 l 21.063,19.384 2.601,-1.3 -2.864,-28.519 c -0.173,-2.55 0.141,-4.049 0.961,-4.492 l -0.666,-1.319 -10.262,5.144 0.666,1.32 c 1.98,-0.986 3.357,-0.711 4.132,0.839 0.205,0.397 0.371,0.935 0.506,1.601 l 0.666,4.433 z"
             style="fill:#ffffff;fill-opacity:1;fill-rule:nonzero;stroke:none"
             id="path3855"
             inkscape:connector-curvature="0" /></g><g
           id="g3857"
           transform="translate(293.1748,140.4141)"><path
             d="m 0,0 -4.548,-17.405 c -0.417,-1.589 0.845,-2.8 3.779,-3.626 l -0.371,-1.429 -9.417,2.46 0.371,1.429 c 1.429,-0.34 2.352,0.295 2.774,1.915 L -1.96,4.215 c 0.794,3.036 0.486,4.753 -0.923,5.157 l 0.372,1.428 3.99,-1.044 12.39,-26.918 4.773,18.269 c 0.416,1.589 -0.788,2.781 -3.607,3.581 l 0.378,1.429 9.41,-2.46 -0.371,-1.428 C 22.882,2.606 21.883,1.985 21.46,0.364 l -7.027,-26.898 -1.736,0.455 z"
             style="fill:#ffffff;fill-opacity:1;fill-rule:nonzero;stroke:none"
             id="path3859"
             inkscape:connector-curvature="0" /></g><g
           id="g3861"
           transform="translate(373.2305,124.6865)"><path
             d="m 0,0 c 0.347,-4.138 1.513,-7.398 3.479,-9.781 1.966,-2.326 4.305,-3.37 7.021,-3.146 2.857,0.269 5.048,1.294 6.579,3.074 1.525,1.814 2.376,3.505 2.543,5.075 l 1.339,0.108 c -0.25,-2.39 -1.274,-4.683 -3.068,-6.867 -1.737,-2.127 -4.497,-3.382 -8.277,-3.754 -4.081,-0.346 -7.521,0.756 -10.314,3.318 -2.902,2.691 -4.555,6.529 -4.978,11.499 -0.422,5.036 0.628,9.116 3.158,12.243 2.518,3.203 5.805,4.983 9.86,5.329 2.472,0.199 4.414,-0.083 5.829,-0.865 0.57,-0.314 1.013,-0.455 1.346,-0.422 0.563,0.044 0.806,0.563 0.723,1.543 l 1.96,0.167 0.878,-10.41 -1.922,-0.167 c -0.583,2.627 -1.473,4.677 -2.677,6.163 -1.205,1.46 -3.043,2.082 -5.516,1.883 C 5.522,14.779 3.491,13.261 1.871,10.423 0.275,7.643 -0.352,4.177 0,0"
             style="fill:#ffffff;fill-opacity:1;fill-rule:nonzero;stroke:none"
             id="path3863"
             inkscape:connector-curvature="0" /></g><g
           id="g3865"
           transform="translate(414.0186,142.6689)"><path
             d="M 0,0 C -0.494,1.602 -1.807,2.107 -3.94,1.518 L -4.369,2.934 6.521,6.265 6.956,4.849 C 4.772,4.119 4.138,2.255 5.061,-0.75 L 9.07,-13.869 c 1.794,-5.861 5.368,-7.97 10.711,-6.336 5.087,1.557 6.752,5.227 4.985,10.999 L 20.71,4.042 C 19.788,7.04 18.263,8.244 16.13,7.661 l -0.429,1.416 9.301,2.844 0.43,-1.415 C 23.215,9.794 22.356,8.622 22.85,6.995 l 4.842,-15.816 c 0.974,-3.184 0.84,-6.112 -0.403,-8.802 -1.256,-2.633 -3.856,-4.562 -7.803,-5.773 -3.971,-1.209 -7.155,-1.063 -9.563,0.456 -2.415,1.576 -4.088,3.876 -5.017,6.905 z"
             style="fill:#ffffff;fill-opacity:1;fill-rule:nonzero;stroke:none"
             id="path3867"
             inkscape:connector-curvature="0" /></g><g
           id="g3869"
           transform="translate(475.0674,141.0605)"><path
             d="M 0,0 C 0.75,-1.461 2.165,-1.691 4.241,-0.686 L 4.92,-2.005 -5.208,-7.22 -5.887,-5.906 c 1.941,1.069 2.536,2.325 1.781,3.792 L -14.99,19.014 c -0.756,1.46 -2.127,1.71 -4.119,0.749 l -0.679,1.319 10.121,5.215 0.68,-1.314 c -2.019,-1.108 -2.653,-2.395 -1.897,-3.856 z"
             style="fill:#ffffff;fill-opacity:1;fill-rule:nonzero;stroke:none"
             id="path3871"
             inkscape:connector-curvature="0" /></g><g
           id="g3873"
           transform="translate(493.9209,169.1768)"><path
             d="m 0,0 c -2.607,0 -4.689,0.891 -6.24,2.678 -1.307,1.749 -1.723,3.786 -1.255,6.111 0.461,2.28 1.998,4.401 4.612,6.349 2.594,1.922 5.253,2.748 7.994,2.478 l 3.536,-4.753 -1.223,-0.91 c -1.947,1.615 -3.6,2.486 -4.971,2.62 -1.391,0.116 -2.665,-0.249 -3.818,-1.107 -1.487,-1.103 -2.287,-2.281 -2.403,-3.524 -0.128,-1.281 0.212,-2.466 1.019,-3.543 0.961,-1.153 3.19,-1.466 6.682,-0.948 3.325,0.5 5.996,0.731 8.027,0.711 3.081,-0.083 5.618,-1.294 7.61,-3.612 1.57,-2.108 2.108,-4.389 1.62,-6.842 -0.531,-2.485 -2.299,-4.843 -5.297,-7.072 C 12.396,-13.972 9,-14.952 5.72,-14.292 l -4.708,6.323 1.8,1.339 c 2.864,-2.895 5.137,-4.427 6.822,-4.587 1.666,-0.179 3.235,0.281 4.721,1.39 1.782,1.326 2.806,2.672 3.094,4.029 0.27,1.288 -0.178,2.775 -1.364,4.472 C 14.465,0.596 11.793,1.307 8.064,0.801 4.42,0.295 1.729,0.025 0,0"
             style="fill:#ffffff;fill-opacity:1;fill-rule:nonzero;stroke:none"
             id="path3875"
             inkscape:connector-curvature="0" /></g><g
           id="g3877"
           transform="translate(539.4033,189.8105)"><path
             d="m 0,0 c 1.186,-1.141 2.595,-0.91 4.241,0.705 l 1.057,-1.032 -7.911,-8.187 -1.064,1.026 c 1.492,1.633 1.653,3.023 0.468,4.163 L -20.301,13.19 c -1.185,1.14 -2.562,0.935 -4.144,-0.615 l -1.064,1.031 7.911,8.187 1.071,-1.024 c -1.564,-1.699 -1.749,-3.121 -0.565,-4.26 z"
             style="fill:#ffffff;fill-opacity:1;fill-rule:nonzero;stroke:none"
             id="path3879"
             inkscape:connector-curvature="0" /></g><g
           id="g3881"
           transform="translate(545.3477,224.6719)"><path
             d="m 0,0 14.92,-10.038 c 1.358,-0.923 2.921,-0.135 4.67,2.364 l 1.23,-0.827 -5.432,-8.077 -1.23,0.832 c 0.794,1.236 0.493,2.319 -0.89,3.255 L -4.625,-0.454 c -2.607,1.761 -4.33,2.037 -5.169,0.839 l -1.23,0.82 2.306,3.427 29.499,2.786 -15.662,10.545 c -1.365,0.922 -2.89,0.18 -4.574,-2.217 l -1.23,0.826 5.439,8.073 1.224,-0.833 C 5.1,22.466 5.362,21.313 6.746,20.378 L 29.814,4.856 28.809,3.363 Z"
             style="fill:#ffffff;fill-opacity:1;fill-rule:nonzero;stroke:none"
             id="path3883"
             inkscape:connector-curvature="0" /></g><g
           id="g3885"
           transform="translate(577.1152,267.042)"><path
             d="m 0,0 10.18,-4.132 c 1.133,-0.462 1.966,-0.039 2.498,1.262 l 2.427,5.976 c 1.519,3.742 0.417,6.362 -3.292,7.873 l 0.775,1.916 7.809,-3.171 -9.251,-22.812 -1.37,0.551 c 0.775,2.076 0.397,3.421 -1.121,4.036 l -22.024,8.937 c -1.525,0.614 -2.729,-0.09 -3.619,-2.108 l -1.371,0.551 8.718,21.485 7.816,-3.171 -0.781,-1.915 c -3.71,1.505 -6.349,0.339 -7.906,-3.51 l -2.62,-6.445 10.89,-4.42 2.749,6.778 c 0.614,1.524 0.185,2.6 -1.301,3.234 l 0.66,1.621 L 6.387,9.891 5.728,8.27 C 4.363,8.789 3.37,8.289 2.748,6.771 Z"
             style="fill:#ffffff;fill-opacity:1;fill-rule:nonzero;stroke:none"
             id="path3887"
             inkscape:connector-curvature="0" /></g><g
           id="g3889"
           transform="translate(559.4746,346.8184)"><path
             d="m 0,0 v 2.59 c 8.015,12.865 8.878,14.961 8.878,18.29 0,2.384 -1.232,4.152 -3.124,4.152 -1.809,0 -3.082,-1.151 -4.109,-3.412 l -2.22,1.726 c 1.52,2.837 3.288,4.481 6.412,4.481 3.863,0 6.247,-2.836 6.247,-6.905 0,-3.576 -1.314,-6.7 -8.18,-18.168 h 8.222 V 0 Z"
             style="fill:#ed1c24;fill-opacity:1;fill-rule:nonzero;stroke:none"
             id="path3891"
             inkscape:connector-curvature="0" /></g><g
           id="g3893"
           transform="translate(585.8232,360.5059)"><path
             d="m 0,0 c 0,5.343 -0.246,11.344 -3.494,11.344 -3.164,0 -3.493,-6.001 -3.493,-11.344 0,-5.302 0.247,-11.386 3.493,-11.386 C -0.246,-11.386 0,-5.302 0,0 m -10.192,0 c 0,6.494 1.397,14.139 6.698,14.139 5.344,0 6.741,-7.645 6.741,-14.139 0,-6.453 -1.356,-14.181 -6.741,-14.181 -5.301,0 -6.698,7.728 -6.698,14.181"
             style="fill:#ed1c24;fill-opacity:1;fill-rule:nonzero;stroke:none"
             id="path3895"
             inkscape:connector-curvature="0" /></g><g
           id="g3897"
           transform="translate(597.5391,346.8184)"><path
             d="m 0,0 v 23.306 l -4.068,-4.398 -1.85,1.972 6.289,6.536 H 3.124 L 3.124,0 Z"
             style="fill:#ed1c24;fill-opacity:1;fill-rule:nonzero;stroke:none"
             id="path3899"
             inkscape:connector-curvature="0" /></g><g
           id="g3901"
           transform="translate(614.8447,364.0405)"><path
             d="m 0,0 c -0.041,2.754 -0.37,7.851 -3.37,7.851 -2.344,0 -3.124,-3.001 -3.124,-6.001 0,-4.686 1.397,-6.124 3.041,-6.124 1.85,0 2.878,2.301 3.453,4.274 m -9.33,-14.139 1.891,2.055 c 0.658,-1.809 1.603,-2.795 3.247,-2.795 3.288,0 4.233,6.043 4.233,11.098 v 0.616 c -0.739,-2.014 -2.179,-3.823 -4.315,-3.823 -3.042,0 -5.426,2.919 -5.426,8.755 0,4.563 2.014,8.879 6.165,8.879 5.385,0 6.782,-7.07 6.782,-14.181 0,-7.275 -1.85,-14.139 -7.398,-14.139 -2.261,0 -4.193,1.356 -5.179,3.535"
             style="fill:#ed1c24;fill-opacity:1;fill-rule:nonzero;stroke:none"
             id="path3903"
             inkscape:connector-curvature="0" /></g><g
           id="g3905"
           transform="translate(103.0059,346.8184)"><path
             d="M 0,0 V 27.415 H 10.193 V 24.661 H 3.083 V 15.414 H 9.906 V 12.659 H 3.083 V 2.754 h 7.11 l 0,-2.754 z"
             style="fill:#ed1c24;fill-opacity:1;fill-rule:nonzero;stroke:none"
             id="path3907"
             inkscape:connector-curvature="0" /></g><g
           id="g3909"
           transform="translate(116.6943,348.832)"><path
             d="M 0,0 1.562,2.467 C 2.549,1.11 4.234,0.288 5.713,0.288 c 2.015,0 3.577,1.686 3.577,4.233 0,6.248 -8.55,6.7 -8.55,14.551 0,3.946 2.631,6.782 6.33,6.782 1.89,0 3.617,-0.658 4.891,-1.932 l -1.357,-2.384 c -0.945,1.027 -2.137,1.521 -3.493,1.521 -1.726,0 -3.206,-1.48 -3.206,-3.864 0,-5.343 8.508,-6.412 8.508,-14.509 0,-4.151 -2.59,-7.193 -6.536,-7.193 C 3.453,-2.507 1.479,-1.603 0,0"
             style="fill:#ed1c24;fill-opacity:1;fill-rule:nonzero;stroke:none"
             id="path3911"
             inkscape:connector-curvature="0" /></g><g
           id="g3913"
           transform="translate(136.2617,346.8184)"><path
             d="m 0,0 v 24.661 h -4.315 v 2.754 H 7.439 V 24.661 H 3.124 L 3.124,0 Z"
             style="fill:#ed1c24;fill-opacity:1;fill-rule:nonzero;stroke:none"
             id="path3915"
             inkscape:connector-curvature="0" /></g><g
           id="g3917"
           transform="translate(145.6758,348.5449)"><path
             d="M 0,0 C 0,1.15 0.986,2.096 2.178,2.096 3.329,2.096 4.274,1.15 4.274,0 4.274,-1.151 3.329,-2.137 2.178,-2.137 0.986,-2.137 0,-1.151 0,0"
             style="fill:#ed1c24;fill-opacity:1;fill-rule:nonzero;stroke:none"
             id="path3919"
             inkscape:connector-curvature="0" /></g><path
           d="m 277.586,407.932 h 45.901 v 6.942 h -45.901 z m 51.168,14.083 c 2.348,0 4.999,1.972 5.105,4.286 0.202,4.373 0.248,8.771 0.011,13.14 -0.142,2.634 -2.075,4.495 -4.037,6.106 -4.228,3.471 -9.222,5.322 -14.428,6.725 -5.153,1.389 -10.416,1.541 -15.701,1.517 -6.824,-0.032 -13.521,-0.775 -19.913,-3.372 -3.635,-1.476 -7.004,-3.348 -9.866,-6.082 -1.697,-1.622 -2.754,-3.554 -2.812,-5.887 -0.093,-3.807 -0.183,-7.624 -0.004,-11.424 0.138,-2.92 1.745,-4.395 4.672,-4.552 4.306,-0.231 24.106,-0.444 29.693,-0.444 0,-0.005 18.187,-0.013 27.28,-0.013 m 6.989,-29.745 c -0.434,4.097 -3.747,8.275 -9.251,8.238 -5.158,-0.035 -10.316,0.208 -15.475,0.224 -10.051,0.031 -20.102,0.003 -30.153,-0.035 -2.425,-0.009 -4.852,-0.093 -7.272,-0.246 -3.823,-0.242 -7.668,-3.71 -8.105,-7.515 -0.642,-5.58 -1.088,-11.183 -1.615,-16.776 -0.169,-1.792 -0.331,-3.585 -0.503,-5.451 h 74.417 c -0.679,7.242 -1.287,14.409 -2.043,21.561 M 249.708,279.764 c 0.73,10.604 1.411,21.212 2.181,31.813 0.853,11.753 1.775,23.501 2.682,35.25 0.784,10.175 1.565,20.35 2.396,30.521 0.48,5.871 0.975,11.744 1.626,17.598 0.311,2.803 1.933,5.073 3.769,7.145 1.951,2.205 4.367,3.767 7.07,4.878 0.771,0.317 1,0.757 0.981,1.56 -0.054,2.191 -0.018,4.384 -0.018,6.641 -0.372,0.116 -0.688,0.236 -1.014,0.312 -3.678,0.87 -6.379,3.06 -8.084,6.357 -0.685,1.325 -1.16,2.889 -1.239,4.369 -0.209,3.92 -0.172,7.854 -0.191,11.783 -0.022,4.735 2.092,8.522 5.393,11.724 4.598,4.462 10.278,6.945 16.298,8.794 7.21,2.216 14.638,2.306 22.078,2.35 8.668,0.051 16.87,-1.912 24.599,-5.779 4.732,-2.368 8.721,-5.615 11.375,-10.325 0.974,-1.729 1.449,-3.548 1.454,-5.51 0.013,-4.854 0.023,-9.708 0.024,-14.563 0,-0.299 -0.019,-0.63 -0.143,-0.892 -1.75,-3.701 -4.13,-6.748 -8.232,-8.08 -1.801,-0.585 -1.778,-0.653 -1.849,-2.527 -0.06,-1.578 -0.07,-3.161 -0.202,-4.733 -0.072,-0.855 0.266,-1.216 1.014,-1.512 4.895,-1.942 8.518,-5.292 10.357,-10.233 0.747,-2.008 0.903,-4.277 1.081,-6.448 1.148,-14.009 2.254,-28.021 3.322,-42.036 1.119,-14.707 2.199,-29.417 3.259,-44.128 0.705,-9.796 1.34,-19.596 2.016,-29.394 0.432,-6.245 -2.464,-10.684 -7.539,-13.942 -1.745,-1.121 -3.597,-1.622 -5.749,-1.617 -25.734,0.067 -51.469,0.039 -77.204,0.065 -0.772,0.001 -1.605,0.192 -2.305,0.519 -4.923,2.295 -8.248,5.952 -9.463,11.353 -0.015,0.065 -0.096,0.114 -0.145,0.17 v 3.931 c 0.135,1.528 0.297,3.055 0.402,4.586"
           style="fill:#ffffff;fill-opacity:1;fill-rule:nonzero;stroke:none"
           id="path3921"
           inkscape:connector-curvature="0" /><g
           id="g3923"
           transform="translate(300.7832,445.1553)"><path
             d="M 0,0 C 0.967,0.271 2.094,0.429 3.072,0.896 4.412,1.538 4.616,2.835 3.506,3.797 2.797,4.412 1.811,4.968 0.91,5.035 -0.358,5.129 -1.683,4.835 -2.943,4.537 -3.946,4.3 -4.642,3.544 -4.645,2.458 -4.646,1.421 -3.849,0.896 -2.972,0.629 -2.063,0.353 -1.108,0.227 0,0"
             style="fill:#ffffff;fill-opacity:1;fill-rule:nonzero;stroke:none"
             id="path3925"
             inkscape:connector-curvature="0" /></g><g
           id="g3927"
           transform="translate(287.4722,448.6099)"><path
             d="m 0,0 c -2.045,-0.05 -3.588,-0.554 -4.781,-1.847 -1.078,-1.169 -0.808,-2.483 0.692,-3.014 2.113,-0.749 4.181,-0.484 6.083,0.711 0.77,0.484 1.402,1.158 1.222,2.181 -0.175,0.997 -0.949,1.455 -1.835,1.71 C 0.833,-0.102 0.256,-0.046 0,0"
             style="fill:#ffffff;fill-opacity:1;fill-rule:nonzero;stroke:none"
             id="path3929"
             inkscape:connector-curvature="0" /></g><g
           id="g3931"
           transform="translate(315.8281,443.2476)"><path
             d="M 0,0 C 0.538,0.163 1.425,0.313 2.197,0.694 3.25,1.215 3.435,2.258 2.795,3.227 1.452,5.262 -2.621,6.047 -4.611,4.655 -5.63,3.941 -5.751,2.952 -4.876,2.005 -3.661,0.691 -2.084,0.164 0,0"
             style="fill:#ffffff;fill-opacity:1;fill-rule:nonzero;stroke:none"
             id="path3933"
             inkscape:connector-curvature="0" /></g><path
           d="m 396.479,305.138 h 45.932 v 6.932 h -45.932 z m -6.045,-7.548 c -2.618,-0.158 -4.167,-1.771 -4.35,-4.403 -0.217,-3.144 -0.104,-6.31 -0.29,-9.458 -0.224,-3.765 1.407,-6.597 4.111,-8.984 2.754,-2.431 5.967,-4.05 9.357,-5.376 6.311,-2.47 12.922,-3.02 19.609,-3.124 5.212,-0.08 10.389,0.13 15.463,1.496 5.241,1.411 10.263,3.284 14.507,6.802 1.931,1.602 3.795,3.464 3.951,6.033 0.262,4.29 0.295,8.621 0.004,12.906 -0.159,2.343 -1.519,3.724 -3.818,3.964 -1.3,0.136 -54.244,0.403 -58.544,0.144 m 66.196,51.706 H 382.3 c 0.264,-3.136 0.498,-6.202 0.787,-9.264 0.411,-4.367 0.737,-8.747 1.334,-13.089 0.535,-3.893 4.401,-7.198 8.326,-7.405 2.307,-0.122 4.617,-0.219 6.926,-0.227 10.128,-0.036 20.257,-0.066 30.384,-0.035 5.159,0.016 10.318,0.12 15.474,0.28 1.913,0.059 3.861,0.241 5.414,1.626 2.149,1.914 3.57,4.207 3.824,7.138 0.443,5.099 0.901,10.198 1.353,15.295 0.166,1.871 0.334,3.741 0.508,5.681 m -74.821,7.36 h 75.306 c 0.14,1.805 0.274,3.486 0.401,5.167 0.57,7.604 1.14,15.208 1.709,22.812 0.664,8.871 1.338,17.742 1.986,26.615 0.526,7.221 1.044,14.443 1.519,21.668 0.312,4.727 0.61,9.457 0.781,14.19 0.109,3.007 -3.109,6.344 -6.085,6.499 -2.231,0.117 -4.464,0.231 -6.697,0.237 -17.992,0.05 -35.983,0.098 -53.974,0.087 -4.775,-0.003 -9.549,-0.21 -14.323,-0.329 -4.113,-0.104 -5.84,-1.999 -6.852,-5.479 -0.386,-1.327 -0.324,-2.834 -0.226,-4.243 0.863,-12.409 1.767,-24.816 2.684,-37.221 1.061,-14.365 2.145,-28.727 3.222,-43.091 0.167,-2.22 0.352,-4.44 0.549,-6.912 m 88.885,88.406 c -0.141,-1.641 -0.304,-3.28 -0.421,-4.922 -1.081,-15.253 -2.134,-30.507 -3.237,-45.758 -0.922,-12.753 -1.867,-25.505 -2.864,-38.252 -0.786,-10.06 -1.655,-20.112 -2.524,-30.165 -0.078,-0.906 -0.301,-1.836 -0.648,-2.677 -2.138,-5.179 -5.95,-8.564 -11.247,-10.457 0,-1.967 0.077,-4.074 -0.028,-6.173 -0.069,-1.362 0.492,-1.962 1.734,-2.344 3.283,-1.007 5.768,-3.066 7.299,-6.147 0.536,-1.079 1.058,-2.298 1.096,-3.468 0.157,-4.731 0.288,-9.475 0.109,-14.202 -0.175,-4.651 -2.857,-8.159 -6.168,-11.115 -4.667,-4.168 -10.362,-6.396 -16.282,-8.128 -8.083,-2.365 -16.34,-2.306 -24.638,-1.868 -7.328,0.385 -14.288,2.149 -20.855,5.406 -3.583,1.776 -6.82,4.049 -9.402,7.155 -2.279,2.74 -3.792,5.839 -3.825,9.448 -0.04,4.389 -0.174,8.807 0.255,13.163 0.456,4.643 3.455,7.659 7.662,9.47 0.804,0.347 1.678,0.528 2.604,0.811 0,2.497 0.019,4.997 -0.028,7.496 -0.005,0.255 -0.363,0.653 -0.632,0.732 -4.988,1.476 -8.08,5.051 -10.34,9.459 -0.578,1.128 -0.864,2.484 -0.973,3.761 -1.222,14.313 -2.427,28.627 -3.549,42.948 -1.208,15.435 -2.348,30.876 -3.47,46.318 -0.719,9.911 -1.34,19.829 -2.032,29.742 -0.455,6.528 2.725,10.977 8.027,14.247 1.543,0.952 3.168,1.321 5.02,1.317 25.737,-0.05 51.475,-0.027 77.212,-0.061 0.916,-10e-4 1.903,-0.243 2.736,-0.632 4.849,-2.269 8.083,-5.912 9.273,-11.225 0.014,-0.067 0.089,-0.12 0.136,-0.18 z"
           style="fill:#ffffff;fill-opacity:1;fill-rule:nonzero;stroke:none"
           id="path3935"
           inkscape:connector-curvature="0" /><g
           id="g3937"
           transform="translate(419.6621,274.8799)"><path
             d="M 0,0 C 1.04,-0.307 2.197,-0.492 3.205,-0.985 4.406,-1.573 4.607,-2.882 3.606,-3.751 2.87,-4.39 1.854,-5.001 0.928,-5.059 c -1.341,-0.083 -2.783,0.161 -4.045,0.631 -0.662,0.247 -1.362,1.245 -1.426,1.96 -0.049,0.537 0.777,1.388 1.41,1.697 C -2.232,-0.332 -1.152,-0.262 0,0"
             style="fill:#ffffff;fill-opacity:1;fill-rule:nonzero;stroke:none"
             id="path3939"
             inkscape:connector-curvature="0" /></g><g
           id="g3941"
           transform="translate(406.416,271.3975)"><path
             d="M 0,0 C -1.911,0.136 -3.397,0.502 -4.612,1.558 -5.991,2.756 -5.743,4.179 -4.067,4.895 -2.041,5.762 0.792,5.196 2.376,3.61 3.6,2.385 3.393,1.113 1.791,0.441 1.133,0.164 0.39,0.091 0,0"
             style="fill:#ffffff;fill-opacity:1;fill-rule:nonzero;stroke:none"
             id="path3943"
             inkscape:connector-curvature="0" /></g><g
           id="g3945"
           transform="translate(432.8457,271.2432)"><path
             d="M 0,0 C -0.869,0.263 -1.796,0.411 -2.593,0.814 -3.71,1.38 -3.845,2.448 -3.075,3.421 -1.628,5.25 1.832,6.021 3.89,4.973 5.183,4.313 5.444,3.128 4.481,2.039 3.313,0.719 1.781,0.197 0,0"
             style="fill:#ffffff;fill-opacity:1;fill-rule:nonzero;stroke:none"
             id="path3947"
             inkscape:connector-curvature="0" /></g></g></g></g></svg>
